<mxfile host="app.diagrams.net" modified="2023-08-04T13:58:27.219Z" agent="Mozilla/5.0 (Windows NT 10.0; Win64; x64) AppleWebKit/537.36 (KHTML, like Gecko) Chrome/115.0.0.0 Safari/537.36 Edg/115.0.1901.188" etag="otGO2KDoxPzR_UEwfoWv" version="21.6.6" type="device">
  <diagram id="zOSpV-eab1G1ADhQ4Z4G" name="第 1 页">
    <mxGraphModel dx="489" dy="353" grid="1" gridSize="10" guides="1" tooltips="1" connect="1" arrows="1" fold="1" page="1" pageScale="1" pageWidth="400" pageHeight="530" math="0" shadow="0">
      <root>
        <mxCell id="0" />
        <mxCell id="1" parent="0" />
        <mxCell id="CSHluSMEKM3f2VHoFc_n-97" style="edgeStyle=orthogonalEdgeStyle;rounded=0;orthogonalLoop=1;jettySize=auto;html=1;exitX=0.5;exitY=1;exitDx=0;exitDy=0;entryX=0.5;entryY=0;entryDx=0;entryDy=0;fontSize=18;fontFamily=Bahnschrift Light;fontSource=https%3A%2F%2Ffonts.googleapis.com%2Fcss%3Ffamily%3DBahnschrift%2BLight;" parent="1" source="2" target="CSHluSMEKM3f2VHoFc_n-72" edge="1">
          <mxGeometry relative="1" as="geometry" />
        </mxCell>
        <mxCell id="2" value="VNR Arrived" style="rounded=1;whiteSpace=wrap;html=1;fillColor=#E0E9F1;strokeColor=none;fontSize=12;fontFamily=Bahnschrift Light;fontSource=https%3A%2F%2Ffonts.googleapis.com%2Fcss%3Ffamily%3DBahnschrift%2BLight;" parent="1" vertex="1">
          <mxGeometry x="5" width="100" height="50" as="geometry" />
        </mxCell>
        <mxCell id="CSHluSMEKM3f2VHoFc_n-99" style="edgeStyle=orthogonalEdgeStyle;rounded=0;orthogonalLoop=1;jettySize=auto;html=1;exitX=0.5;exitY=1;exitDx=0;exitDy=0;entryX=0.5;entryY=0;entryDx=0;entryDy=0;fontSize=18;fontFamily=Bahnschrift Light;fontSource=https%3A%2F%2Ffonts.googleapis.com%2Fcss%3Ffamily%3DBahnschrift%2BLight;" parent="1" source="CSHluSMEKM3f2VHoFc_n-72" target="CSHluSMEKM3f2VHoFc_n-74" edge="1">
          <mxGeometry relative="1" as="geometry" />
        </mxCell>
        <mxCell id="CSHluSMEKM3f2VHoFc_n-164" value="NO" style="edgeLabel;html=1;align=center;verticalAlign=middle;resizable=0;points=[];" parent="CSHluSMEKM3f2VHoFc_n-99" vertex="1" connectable="0">
          <mxGeometry x="-0.1314" relative="1" as="geometry">
            <mxPoint as="offset" />
          </mxGeometry>
        </mxCell>
        <mxCell id="CSHluSMEKM3f2VHoFc_n-121" style="edgeStyle=orthogonalEdgeStyle;rounded=1;orthogonalLoop=1;jettySize=auto;html=1;exitX=1;exitY=0.5;exitDx=0;exitDy=0;endArrow=none;endFill=0;fontSize=18;fontFamily=Bahnschrift Light;fontSource=https%3A%2F%2Ffonts.googleapis.com%2Fcss%3Ffamily%3DBahnschrift%2BLight;" parent="1" source="CSHluSMEKM3f2VHoFc_n-72" edge="1">
          <mxGeometry relative="1" as="geometry">
            <mxPoint x="349" y="60" as="targetPoint" />
            <Array as="points">
              <mxPoint x="349" y="105" />
            </Array>
          </mxGeometry>
        </mxCell>
        <mxCell id="CSHluSMEKM3f2VHoFc_n-167" value="YES" style="edgeLabel;html=1;align=center;verticalAlign=middle;resizable=0;points=[];" parent="CSHluSMEKM3f2VHoFc_n-121" vertex="1" connectable="0">
          <mxGeometry x="-0.7455" relative="1" as="geometry">
            <mxPoint as="offset" />
          </mxGeometry>
        </mxCell>
        <mxCell id="CSHluSMEKM3f2VHoFc_n-72" value="No Constraint" style="rhombus;whiteSpace=wrap;html=1;rounded=1;fontFamily=Bahnschrift Light;fillColor=#FCEBDD;strokeColor=none;fontSize=12;fontSource=https%3A%2F%2Ffonts.googleapis.com%2Fcss%3Ffamily%3DBahnschrift%2BLight;" parent="1" vertex="1">
          <mxGeometry x="10" y="70" width="90" height="70" as="geometry" />
        </mxCell>
        <mxCell id="CSHluSMEKM3f2VHoFc_n-100" style="edgeStyle=orthogonalEdgeStyle;rounded=0;orthogonalLoop=1;jettySize=auto;html=1;exitX=0.5;exitY=1;exitDx=0;exitDy=0;entryX=0.5;entryY=0;entryDx=0;entryDy=0;fontSize=18;fontFamily=Bahnschrift Light;fontSource=https%3A%2F%2Ffonts.googleapis.com%2Fcss%3Ffamily%3DBahnschrift%2BLight;" parent="1" source="CSHluSMEKM3f2VHoFc_n-74" target="CSHluSMEKM3f2VHoFc_n-75" edge="1">
          <mxGeometry relative="1" as="geometry" />
        </mxCell>
        <mxCell id="CSHluSMEKM3f2VHoFc_n-163" value="NO" style="edgeLabel;html=1;align=center;verticalAlign=middle;resizable=0;points=[];" parent="CSHluSMEKM3f2VHoFc_n-100" vertex="1" connectable="0">
          <mxGeometry x="-0.1429" relative="1" as="geometry">
            <mxPoint as="offset" />
          </mxGeometry>
        </mxCell>
        <mxCell id="CSHluSMEKM3f2VHoFc_n-102" style="edgeStyle=orthogonalEdgeStyle;rounded=0;orthogonalLoop=1;jettySize=auto;html=1;exitX=1;exitY=0.5;exitDx=0;exitDy=0;entryX=0;entryY=0.5;entryDx=0;entryDy=0;fontSize=18;fontFamily=Bahnschrift Light;fontSource=https%3A%2F%2Ffonts.googleapis.com%2Fcss%3Ffamily%3DBahnschrift%2BLight;" parent="1" source="CSHluSMEKM3f2VHoFc_n-74" target="CSHluSMEKM3f2VHoFc_n-78" edge="1">
          <mxGeometry relative="1" as="geometry" />
        </mxCell>
        <mxCell id="CSHluSMEKM3f2VHoFc_n-172" value="YES" style="edgeLabel;html=1;align=center;verticalAlign=middle;resizable=0;points=[];" parent="CSHluSMEKM3f2VHoFc_n-102" vertex="1" connectable="0">
          <mxGeometry x="-0.1" relative="1" as="geometry">
            <mxPoint as="offset" />
          </mxGeometry>
        </mxCell>
        <mxCell id="CSHluSMEKM3f2VHoFc_n-74" value="Biased Constraint" style="rhombus;whiteSpace=wrap;html=1;rounded=1;fontFamily=Bahnschrift Light;fillColor=#FCEBDD;strokeColor=none;fontSize=12;fontSource=https%3A%2F%2Ffonts.googleapis.com%2Fcss%3Ffamily%3DBahnschrift%2BLight;" parent="1" vertex="1">
          <mxGeometry x="10" y="175.41" width="90" height="80" as="geometry" />
        </mxCell>
        <mxCell id="CSHluSMEKM3f2VHoFc_n-101" style="edgeStyle=orthogonalEdgeStyle;rounded=0;orthogonalLoop=1;jettySize=auto;html=1;exitX=0.5;exitY=1;exitDx=0;exitDy=0;entryX=0.5;entryY=0;entryDx=0;entryDy=0;fontSize=18;fontFamily=Bahnschrift Light;fontSource=https%3A%2F%2Ffonts.googleapis.com%2Fcss%3Ffamily%3DBahnschrift%2BLight;" parent="1" source="CSHluSMEKM3f2VHoFc_n-75" target="CSHluSMEKM3f2VHoFc_n-179" edge="1">
          <mxGeometry relative="1" as="geometry">
            <mxPoint x="55" y="408.38" as="targetPoint" />
          </mxGeometry>
        </mxCell>
        <mxCell id="CSHluSMEKM3f2VHoFc_n-165" value="NO" style="edgeLabel;html=1;align=center;verticalAlign=middle;resizable=0;points=[];" parent="CSHluSMEKM3f2VHoFc_n-101" vertex="1" connectable="0">
          <mxGeometry x="-0.18" y="1" relative="1" as="geometry">
            <mxPoint as="offset" />
          </mxGeometry>
        </mxCell>
        <mxCell id="CSHluSMEKM3f2VHoFc_n-125" style="edgeStyle=orthogonalEdgeStyle;rounded=0;orthogonalLoop=1;jettySize=auto;html=1;exitX=1;exitY=0.5;exitDx=0;exitDy=0;entryX=0;entryY=0.5;entryDx=0;entryDy=0;fontSize=18;fontFamily=Bahnschrift Light;fontSource=https%3A%2F%2Ffonts.googleapis.com%2Fcss%3Ffamily%3DBahnschrift%2BLight;" parent="1" source="CSHluSMEKM3f2VHoFc_n-75" target="CSHluSMEKM3f2VHoFc_n-114" edge="1">
          <mxGeometry relative="1" as="geometry" />
        </mxCell>
        <mxCell id="CSHluSMEKM3f2VHoFc_n-175" value="YES" style="edgeLabel;html=1;align=center;verticalAlign=middle;resizable=0;points=[];" parent="CSHluSMEKM3f2VHoFc_n-125" vertex="1" connectable="0">
          <mxGeometry x="-0.2" y="-1" relative="1" as="geometry">
            <mxPoint as="offset" />
          </mxGeometry>
        </mxCell>
        <mxCell id="CSHluSMEKM3f2VHoFc_n-75" value="Lightweight Constraint" style="rhombus;whiteSpace=wrap;html=1;rounded=1;fontFamily=Bahnschrift Light;fillColor=#FCEBDD;strokeColor=none;fontSize=12;fontSource=https%3A%2F%2Ffonts.googleapis.com%2Fcss%3Ffamily%3DBahnschrift%2BLight;" parent="1" vertex="1">
          <mxGeometry x="10" y="288.38" width="90" height="70" as="geometry" />
        </mxCell>
        <mxCell id="CSHluSMEKM3f2VHoFc_n-106" style="edgeStyle=orthogonalEdgeStyle;rounded=0;orthogonalLoop=1;jettySize=auto;html=1;exitX=1;exitY=0.5;exitDx=0;exitDy=0;entryX=0;entryY=0.5;entryDx=0;entryDy=0;fontSize=18;fontFamily=Bahnschrift Light;fontSource=https%3A%2F%2Ffonts.googleapis.com%2Fcss%3Ffamily%3DBahnschrift%2BLight;" parent="1" source="CSHluSMEKM3f2VHoFc_n-179" target="CSHluSMEKM3f2VHoFc_n-81" edge="1">
          <mxGeometry relative="1" as="geometry">
            <mxPoint x="110" y="429.38" as="sourcePoint" />
          </mxGeometry>
        </mxCell>
        <mxCell id="CSHluSMEKM3f2VHoFc_n-77" value="Embedding Substrate Networks" style="rounded=1;whiteSpace=wrap;html=1;fontFamily=Bahnschrift Light;fillColor=#F8CECC;strokeColor=none;fontSize=12;fontSource=https%3A%2F%2Ffonts.googleapis.com%2Fcss%3Ffamily%3DBahnschrift%2BLight;" parent="1" vertex="1">
          <mxGeometry x="304" width="90" height="50" as="geometry" />
        </mxCell>
        <mxCell id="CSHluSMEKM3f2VHoFc_n-119" style="edgeStyle=orthogonalEdgeStyle;rounded=0;orthogonalLoop=1;jettySize=auto;html=1;exitX=1;exitY=0.5;exitDx=0;exitDy=0;entryX=0.034;entryY=0.502;entryDx=0;entryDy=0;entryPerimeter=0;fontSize=18;fontFamily=Bahnschrift Light;fontSource=https%3A%2F%2Ffonts.googleapis.com%2Fcss%3Ffamily%3DBahnschrift%2BLight;" parent="1" source="CSHluSMEKM3f2VHoFc_n-78" target="CSHluSMEKM3f2VHoFc_n-113" edge="1">
          <mxGeometry relative="1" as="geometry" />
        </mxCell>
        <mxCell id="CSHluSMEKM3f2VHoFc_n-174" value="NO" style="edgeLabel;html=1;align=center;verticalAlign=middle;resizable=0;points=[];" parent="CSHluSMEKM3f2VHoFc_n-119" vertex="1" connectable="0">
          <mxGeometry x="-0.1341" relative="1" as="geometry">
            <mxPoint x="-1" as="offset" />
          </mxGeometry>
        </mxCell>
        <mxCell id="CSHluSMEKM3f2VHoFc_n-124" style="edgeStyle=orthogonalEdgeStyle;rounded=0;orthogonalLoop=1;jettySize=auto;html=1;exitX=0.5;exitY=0;exitDx=0;exitDy=0;fontSize=18;fontFamily=Bahnschrift Light;fontSource=https%3A%2F%2Ffonts.googleapis.com%2Fcss%3Ffamily%3DBahnschrift%2BLight;" parent="1" source="CSHluSMEKM3f2VHoFc_n-78" edge="1">
          <mxGeometry relative="1" as="geometry">
            <mxPoint x="185.24137931034488" y="110" as="targetPoint" />
          </mxGeometry>
        </mxCell>
        <mxCell id="CSHluSMEKM3f2VHoFc_n-168" value="YES" style="edgeLabel;html=1;align=center;verticalAlign=middle;resizable=0;points=[];" parent="CSHluSMEKM3f2VHoFc_n-124" vertex="1" connectable="0">
          <mxGeometry x="-0.224" y="1" relative="1" as="geometry">
            <mxPoint as="offset" />
          </mxGeometry>
        </mxCell>
        <mxCell id="CSHluSMEKM3f2VHoFc_n-78" value="Check Bias" style="rhombus;whiteSpace=wrap;html=1;rounded=1;fontFamily=Bahnschrift Light;fillColor=#FCEBDD;strokeColor=none;fontSize=12;fontSource=https%3A%2F%2Ffonts.googleapis.com%2Fcss%3Ffamily%3DBahnschrift%2BLight;" parent="1" vertex="1">
          <mxGeometry x="150" y="185.41" width="70" height="60" as="geometry" />
        </mxCell>
        <mxCell id="CSHluSMEKM3f2VHoFc_n-181" style="edgeStyle=orthogonalEdgeStyle;rounded=0;orthogonalLoop=1;jettySize=auto;html=1;exitX=1;exitY=0.5;exitDx=0;exitDy=0;" parent="1" source="CSHluSMEKM3f2VHoFc_n-81" edge="1">
          <mxGeometry relative="1" as="geometry">
            <mxPoint x="240" y="428.38" as="targetPoint" />
          </mxGeometry>
        </mxCell>
        <mxCell id="CSHluSMEKM3f2VHoFc_n-81" value="MLFQ" style="rounded=1;whiteSpace=wrap;html=1;strokeColor=none;fontFamily=Bahnschrift Light;fillColor=#E1D5E7;fontSize=12;fontSource=https%3A%2F%2Ffonts.googleapis.com%2Fcss%3Ffamily%3DBahnschrift%2BLight;" parent="1" vertex="1">
          <mxGeometry x="150" y="413.38" width="70" height="30" as="geometry" />
        </mxCell>
        <mxCell id="CSHluSMEKM3f2VHoFc_n-129" style="edgeStyle=none;rounded=0;orthogonalLoop=1;jettySize=auto;html=1;exitX=0;exitY=0.5;exitDx=0;exitDy=0;fontSize=18;fontFamily=Bahnschrift Light;fontSource=https%3A%2F%2Ffonts.googleapis.com%2Fcss%3Ffamily%3DBahnschrift%2BLight;" parent="1" source="CSHluSMEKM3f2VHoFc_n-83" edge="1">
          <mxGeometry relative="1" as="geometry">
            <mxPoint x="254.68392282958195" y="348.3574919614148" as="targetPoint" />
          </mxGeometry>
        </mxCell>
        <mxCell id="CSHluSMEKM3f2VHoFc_n-83" value="Rule 1" style="rounded=1;whiteSpace=wrap;html=1;fontFamily=Bahnschrift Light;fillColor=#E1D5E7;strokeColor=none;fontSize=12;fontSource=https%3A%2F%2Ffonts.googleapis.com%2Fcss%3Ffamily%3DBahnschrift%2BLight;" parent="1" vertex="1">
          <mxGeometry x="254.7" y="333.38" width="60" height="30" as="geometry" />
        </mxCell>
        <mxCell id="CSHluSMEKM3f2VHoFc_n-92" value="Rule 2" style="rounded=1;whiteSpace=wrap;html=1;fontFamily=Bahnschrift Light;fillColor=#E1D5E7;strokeColor=none;fontSize=12;fontSource=https%3A%2F%2Ffonts.googleapis.com%2Fcss%3Ffamily%3DBahnschrift%2BLight;" parent="1" vertex="1">
          <mxGeometry x="254.7" y="373.38" width="60" height="30" as="geometry" />
        </mxCell>
        <mxCell id="CSHluSMEKM3f2VHoFc_n-180" style="edgeStyle=orthogonalEdgeStyle;rounded=1;orthogonalLoop=1;jettySize=auto;html=1;exitX=1;exitY=0.5;exitDx=0;exitDy=0;entryX=0.5;entryY=1;entryDx=0;entryDy=0;" parent="1" source="CSHluSMEKM3f2VHoFc_n-93" target="CSHluSMEKM3f2VHoFc_n-77" edge="1">
          <mxGeometry relative="1" as="geometry" />
        </mxCell>
        <mxCell id="CSHluSMEKM3f2VHoFc_n-93" value="Rule 3" style="rounded=1;whiteSpace=wrap;html=1;fontFamily=Bahnschrift Light;fillColor=#E1D5E7;strokeColor=none;fontSize=12;fontSource=https%3A%2F%2Ffonts.googleapis.com%2Fcss%3Ffamily%3DBahnschrift%2BLight;" parent="1" vertex="1">
          <mxGeometry x="254.7" y="413.38" width="60" height="30" as="geometry" />
        </mxCell>
        <mxCell id="CSHluSMEKM3f2VHoFc_n-94" value="Rule 4" style="rounded=1;whiteSpace=wrap;html=1;fontFamily=Bahnschrift Light;fillColor=#E1D5E7;strokeColor=none;fontSize=12;fontSource=https%3A%2F%2Ffonts.googleapis.com%2Fcss%3Ffamily%3DBahnschrift%2BLight;" parent="1" vertex="1">
          <mxGeometry x="254.7" y="453.38" width="60" height="30" as="geometry" />
        </mxCell>
        <mxCell id="CSHluSMEKM3f2VHoFc_n-95" value="Rule 5" style="rounded=1;whiteSpace=wrap;html=1;fontFamily=Bahnschrift Light;fillColor=#E1D5E7;strokeColor=none;fontSize=12;fontSource=https%3A%2F%2Ffonts.googleapis.com%2Fcss%3Ffamily%3DBahnschrift%2BLight;" parent="1" vertex="1">
          <mxGeometry x="254.7" y="493.38" width="60" height="30" as="geometry" />
        </mxCell>
        <mxCell id="CSHluSMEKM3f2VHoFc_n-123" style="edgeStyle=orthogonalEdgeStyle;rounded=0;orthogonalLoop=1;jettySize=auto;html=1;exitX=0.5;exitY=0;exitDx=0;exitDy=0;fontSize=18;fontFamily=Bahnschrift Light;fontSource=https%3A%2F%2Ffonts.googleapis.com%2Fcss%3Ffamily%3DBahnschrift%2BLight;" parent="1" source="CSHluSMEKM3f2VHoFc_n-113" edge="1">
          <mxGeometry relative="1" as="geometry">
            <mxPoint x="294.8965517241379" y="110" as="targetPoint" />
            <Array as="points">
              <mxPoint x="295" y="160" />
              <mxPoint x="295" y="160" />
            </Array>
          </mxGeometry>
        </mxCell>
        <mxCell id="CSHluSMEKM3f2VHoFc_n-171" value="YES" style="edgeLabel;html=1;align=center;verticalAlign=middle;resizable=0;points=[];" parent="CSHluSMEKM3f2VHoFc_n-123" vertex="1" connectable="0">
          <mxGeometry x="-0.2178" relative="1" as="geometry">
            <mxPoint as="offset" />
          </mxGeometry>
        </mxCell>
        <mxCell id="CSHluSMEKM3f2VHoFc_n-154" style="edgeStyle=orthogonalEdgeStyle;rounded=1;orthogonalLoop=1;jettySize=auto;html=1;exitX=0.5;exitY=1;exitDx=0;exitDy=0;fontSize=18;fontFamily=Bahnschrift Light;fontSource=https%3A%2F%2Ffonts.googleapis.com%2Fcss%3Ffamily%3DBahnschrift%2BLight;" parent="1" source="CSHluSMEKM3f2VHoFc_n-113" edge="1">
          <mxGeometry relative="1" as="geometry">
            <mxPoint x="70" y="275.40999999999997" as="targetPoint" />
            <Array as="points">
              <mxPoint x="295" y="275.40999999999997" />
              <mxPoint x="240" y="275.40999999999997" />
            </Array>
          </mxGeometry>
        </mxCell>
        <mxCell id="CSHluSMEKM3f2VHoFc_n-166" value="NO" style="edgeLabel;html=1;align=center;verticalAlign=middle;resizable=0;points=[];" parent="CSHluSMEKM3f2VHoFc_n-154" vertex="1" connectable="0">
          <mxGeometry x="-0.4682" y="-2" relative="1" as="geometry">
            <mxPoint as="offset" />
          </mxGeometry>
        </mxCell>
        <mxCell id="CSHluSMEKM3f2VHoFc_n-113" value="Change Bias" style="rhombus;whiteSpace=wrap;html=1;rounded=1;fontFamily=Bahnschrift Light;fillColor=#FCEBDD;strokeColor=none;fontSize=12;fontSource=https%3A%2F%2Ffonts.googleapis.com%2Fcss%3Ffamily%3DBahnschrift%2BLight;" parent="1" vertex="1">
          <mxGeometry x="260" y="185.41" width="70" height="60" as="geometry" />
        </mxCell>
        <mxCell id="CSHluSMEKM3f2VHoFc_n-144" style="edgeStyle=none;rounded=0;orthogonalLoop=1;jettySize=auto;html=1;exitX=1;exitY=0.5;exitDx=0;exitDy=0;fontSize=18;fontFamily=Bahnschrift Light;fontSource=https%3A%2F%2Ffonts.googleapis.com%2Fcss%3Ffamily%3DBahnschrift%2BLight;" parent="1" source="CSHluSMEKM3f2VHoFc_n-114" edge="1">
          <mxGeometry relative="1" as="geometry">
            <mxPoint x="350" y="323.38" as="targetPoint" />
          </mxGeometry>
        </mxCell>
        <mxCell id="CSHluSMEKM3f2VHoFc_n-176" value="YES" style="edgeLabel;html=1;align=center;verticalAlign=middle;resizable=0;points=[];" parent="CSHluSMEKM3f2VHoFc_n-144" vertex="1" connectable="0">
          <mxGeometry x="-0.6369" relative="1" as="geometry">
            <mxPoint as="offset" />
          </mxGeometry>
        </mxCell>
        <mxCell id="CSHluSMEKM3f2VHoFc_n-114" value="CAS" style="rhombus;whiteSpace=wrap;html=1;rounded=1;fontFamily=Bahnschrift Light;fillColor=#FCEBDD;strokeColor=none;fontSize=12;fontSource=https%3A%2F%2Ffonts.googleapis.com%2Fcss%3Ffamily%3DBahnschrift%2BLight;" parent="1" vertex="1">
          <mxGeometry x="150" y="293.38" width="70" height="60" as="geometry" />
        </mxCell>
        <mxCell id="CSHluSMEKM3f2VHoFc_n-128" style="edgeStyle=orthogonalEdgeStyle;rounded=1;orthogonalLoop=1;jettySize=auto;html=1;endArrow=none;endFill=0;entryX=0;entryY=0.5;entryDx=0;entryDy=0;exitX=0;exitY=0.5;exitDx=0;exitDy=0;fontSize=18;fontFamily=Bahnschrift Light;fontSource=https%3A%2F%2Ffonts.googleapis.com%2Fcss%3Ffamily%3DBahnschrift%2BLight;" parent="1" source="CSHluSMEKM3f2VHoFc_n-95" target="CSHluSMEKM3f2VHoFc_n-83" edge="1">
          <mxGeometry relative="1" as="geometry">
            <mxPoint x="239.7" y="348.38" as="targetPoint" />
            <mxPoint x="239.7" y="508.38" as="sourcePoint" />
            <Array as="points">
              <mxPoint x="239.7" y="508.38" />
              <mxPoint x="239.7" y="348.38" />
            </Array>
          </mxGeometry>
        </mxCell>
        <mxCell id="CSHluSMEKM3f2VHoFc_n-132" style="edgeStyle=orthogonalEdgeStyle;rounded=0;orthogonalLoop=1;jettySize=auto;html=1;exitX=1;exitY=0.5;exitDx=0;exitDy=0;endArrow=none;endFill=0;entryX=0;entryY=0.5;entryDx=0;entryDy=0;fontSize=18;fontFamily=Bahnschrift Light;fontSource=https%3A%2F%2Ffonts.googleapis.com%2Fcss%3Ffamily%3DBahnschrift%2BLight;" parent="1" target="CSHluSMEKM3f2VHoFc_n-94" edge="1">
          <mxGeometry relative="1" as="geometry">
            <mxPoint x="269.7" y="468.4704761904761" as="targetPoint" />
            <mxPoint x="239.7" y="468.28" as="sourcePoint" />
          </mxGeometry>
        </mxCell>
        <mxCell id="CSHluSMEKM3f2VHoFc_n-133" style="edgeStyle=orthogonalEdgeStyle;rounded=0;orthogonalLoop=1;jettySize=auto;html=1;exitX=1;exitY=0.5;exitDx=0;exitDy=0;endArrow=none;endFill=0;entryX=0;entryY=0.5;entryDx=0;entryDy=0;fontSize=18;fontFamily=Bahnschrift Light;fontSource=https%3A%2F%2Ffonts.googleapis.com%2Fcss%3Ffamily%3DBahnschrift%2BLight;" parent="1" target="CSHluSMEKM3f2VHoFc_n-93" edge="1">
          <mxGeometry relative="1" as="geometry">
            <mxPoint x="269.7" y="428.4704761904761" as="targetPoint" />
            <mxPoint x="239.7" y="428.28" as="sourcePoint" />
          </mxGeometry>
        </mxCell>
        <mxCell id="CSHluSMEKM3f2VHoFc_n-134" style="edgeStyle=orthogonalEdgeStyle;rounded=0;orthogonalLoop=1;jettySize=auto;html=1;exitX=1;exitY=0.5;exitDx=0;exitDy=0;endArrow=none;endFill=0;entryX=0;entryY=0.5;entryDx=0;entryDy=0;fontSize=18;fontFamily=Bahnschrift Light;fontSource=https%3A%2F%2Ffonts.googleapis.com%2Fcss%3Ffamily%3DBahnschrift%2BLight;" parent="1" target="CSHluSMEKM3f2VHoFc_n-92" edge="1">
          <mxGeometry relative="1" as="geometry">
            <mxPoint x="249.7" y="388.38" as="targetPoint" />
            <mxPoint x="239.7" y="388.28" as="sourcePoint" />
          </mxGeometry>
        </mxCell>
        <mxCell id="CSHluSMEKM3f2VHoFc_n-135" style="edgeStyle=none;rounded=0;orthogonalLoop=1;jettySize=auto;html=1;exitX=0;exitY=0.5;exitDx=0;exitDy=0;fontSize=18;fontFamily=Bahnschrift Light;fontSource=https%3A%2F%2Ffonts.googleapis.com%2Fcss%3Ffamily%3DBahnschrift%2BLight;" parent="1" edge="1">
          <mxGeometry relative="1" as="geometry">
            <mxPoint x="329.68392282958195" y="348.36749196141477" as="targetPoint" />
            <mxPoint x="329.7" y="348.39" as="sourcePoint" />
          </mxGeometry>
        </mxCell>
        <mxCell id="CSHluSMEKM3f2VHoFc_n-137" style="edgeStyle=orthogonalEdgeStyle;rounded=0;orthogonalLoop=1;jettySize=auto;html=1;exitX=1;exitY=0.5;exitDx=0;exitDy=0;endArrow=none;endFill=0;entryX=0;entryY=0.5;entryDx=0;entryDy=0;fontSize=18;fontFamily=Bahnschrift Light;fontSource=https%3A%2F%2Ffonts.googleapis.com%2Fcss%3Ffamily%3DBahnschrift%2BLight;" parent="1" edge="1">
          <mxGeometry relative="1" as="geometry">
            <mxPoint x="329.7" y="468.39" as="targetPoint" />
            <mxPoint x="314.7" y="468.28999999999996" as="sourcePoint" />
          </mxGeometry>
        </mxCell>
        <mxCell id="CSHluSMEKM3f2VHoFc_n-139" style="edgeStyle=orthogonalEdgeStyle;rounded=0;orthogonalLoop=1;jettySize=auto;html=1;exitX=1;exitY=0.5;exitDx=0;exitDy=0;endArrow=none;endFill=0;entryX=0;entryY=0.5;entryDx=0;entryDy=0;fontSize=18;fontFamily=Bahnschrift Light;fontSource=https%3A%2F%2Ffonts.googleapis.com%2Fcss%3Ffamily%3DBahnschrift%2BLight;" parent="1" edge="1">
          <mxGeometry relative="1" as="geometry">
            <mxPoint x="329.7" y="388.39" as="targetPoint" />
            <mxPoint x="314.7" y="388.28999999999996" as="sourcePoint" />
          </mxGeometry>
        </mxCell>
        <mxCell id="CSHluSMEKM3f2VHoFc_n-142" style="edgeStyle=orthogonalEdgeStyle;rounded=1;orthogonalLoop=1;jettySize=auto;html=1;endArrow=none;endFill=0;entryX=1;entryY=0.5;entryDx=0;entryDy=0;exitX=1;exitY=0.5;exitDx=0;exitDy=0;fontSize=18;fontFamily=Bahnschrift Light;fontSource=https%3A%2F%2Ffonts.googleapis.com%2Fcss%3Ffamily%3DBahnschrift%2BLight;" parent="1" source="CSHluSMEKM3f2VHoFc_n-95" target="CSHluSMEKM3f2VHoFc_n-83" edge="1">
          <mxGeometry relative="1" as="geometry">
            <mxPoint x="329.7" y="348.38" as="targetPoint" />
            <mxPoint x="329.7" y="508.38" as="sourcePoint" />
            <Array as="points">
              <mxPoint x="329.7" y="508.38" />
              <mxPoint x="329.7" y="348.38" />
            </Array>
          </mxGeometry>
        </mxCell>
        <mxCell id="CSHluSMEKM3f2VHoFc_n-153" value="" style="endArrow=classic;html=1;rounded=0;fontSize=18;fontFamily=Bahnschrift Light;fontSource=https%3A%2F%2Ffonts.googleapis.com%2Fcss%3Ffamily%3DBahnschrift%2BLight;" parent="1" edge="1">
          <mxGeometry width="50" height="50" relative="1" as="geometry">
            <mxPoint x="349" y="225.41" as="sourcePoint" />
            <mxPoint x="349" y="195.41" as="targetPoint" />
          </mxGeometry>
        </mxCell>
        <mxCell id="CSHluSMEKM3f2VHoFc_n-159" style="edgeStyle=orthogonalEdgeStyle;rounded=1;orthogonalLoop=1;jettySize=auto;html=1;exitX=0.5;exitY=1;exitDx=0;exitDy=0;fontSize=18;fontFamily=Bahnschrift Light;fontSource=https%3A%2F%2Ffonts.googleapis.com%2Fcss%3Ffamily%3DBahnschrift%2BLight;" parent="1" edge="1">
          <mxGeometry relative="1" as="geometry">
            <mxPoint x="70" y="380.38" as="targetPoint" />
            <mxPoint x="185" y="350.38" as="sourcePoint" />
            <Array as="points">
              <mxPoint x="185" y="380.38" />
              <mxPoint x="130" y="380.38" />
            </Array>
          </mxGeometry>
        </mxCell>
        <mxCell id="CSHluSMEKM3f2VHoFc_n-178" value="NO" style="edgeLabel;html=1;align=center;verticalAlign=middle;resizable=0;points=[];" parent="CSHluSMEKM3f2VHoFc_n-159" vertex="1" connectable="0">
          <mxGeometry x="-0.1862" relative="1" as="geometry">
            <mxPoint as="offset" />
          </mxGeometry>
        </mxCell>
        <mxCell id="CSHluSMEKM3f2VHoFc_n-162" value="" style="endArrow=classic;html=1;rounded=0;fontSize=18;fontFamily=Bahnschrift Light;fontSource=https%3A%2F%2Ffonts.googleapis.com%2Fcss%3Ffamily%3DBahnschrift%2BLight;" parent="1" edge="1">
          <mxGeometry width="50" height="50" relative="1" as="geometry">
            <mxPoint x="230" y="104.97" as="sourcePoint" />
            <mxPoint x="240" y="104.97" as="targetPoint" />
          </mxGeometry>
        </mxCell>
        <mxCell id="CSHluSMEKM3f2VHoFc_n-179" value="Heavyweight Constraint" style="rounded=1;whiteSpace=wrap;html=1;fillColor=#FCEBDD;strokeColor=none;fontSize=12;fontFamily=Bahnschrift Light;fontSource=https%3A%2F%2Ffonts.googleapis.com%2Fcss%3Ffamily%3DBahnschrift%2BLight;" parent="1" vertex="1">
          <mxGeometry x="10" y="408.38" width="90" height="40" as="geometry" />
        </mxCell>
      </root>
    </mxGraphModel>
  </diagram>
</mxfile>
